<svg width="21" height="13" viewBox="0 0 21 13" fill="none" xmlns="http://www.w3.org/2000/svg">
<g clip-path="url(#clip0_2_92)">
<path d="M20.6489 8.71425H20.6531H20.6446H20.6489ZM20.0446 8.26854C20.1303 8.54111 20.3771 8.71254 20.6489 8.71425C20.7089 8.71425 20.7749 8.69711 20.8417 8.67997C21.176 8.57711 21.3646 8.20854 21.2531 7.87425C21.2274 7.79711 18.656 0.142822 11 0.142822C3.344 0.142822 0.771719 7.79711 0.746005 7.87425C0.634577 8.20854 0.823148 8.56854 1.15743 8.67997C1.50029 8.79139 1.86029 8.60282 1.97172 8.26854L1.97429 8.26425C2.08829 7.92997 4.32029 1.42854 11.0086 1.42854C17.7303 1.42854 19.9503 7.98568 20.0446 8.26854ZM6.71429 8.71425C6.71429 7.57761 7.16582 6.48752 7.96955 5.68379C8.77327 4.88007 9.86336 4.42854 11 4.42854C12.1366 4.42854 13.2267 4.88007 14.0305 5.68379C14.8342 6.48752 15.2857 7.57761 15.2857 8.71425C15.2857 9.85089 14.8342 10.941 14.0305 11.7447C13.2267 12.5484 12.1366 13 11 13C9.86336 13 8.77327 12.5484 7.96955 11.7447C7.16582 10.941 6.71429 9.85089 6.71429 8.71425Z" fill="#0B3B60"/>
</g>
<defs>
<clipPath id="clip0_2_92">
<rect width="21" height="13" fill="white"/>
</clipPath>
</defs>
</svg>
