<svg width="18" height="17" viewBox="0 0 18 17" fill="none" xmlns="http://www.w3.org/2000/svg">
<g clip-path="url(#clip0_2_95)">
<path d="M15 5.6H17C17.2652 5.6 17.5196 5.68429 17.7071 5.83431C17.8946 5.98434 18 6.18783 18 6.4V16C18 16.2122 17.8946 16.4157 17.7071 16.5657C17.5196 16.7157 17.2652 16.8 17 16.8H1C0.734784 16.8 0.48043 16.7157 0.292893 16.5657C0.105357 16.4157 0 16.2122 0 16V6.4C0 6.18783 0.105357 5.98434 0.292893 5.83431C0.48043 5.68429 0.734784 5.6 1 5.6H3V4.8C3 3.52696 3.63214 2.30606 4.75736 1.40589C5.88258 0.505713 7.4087 0 9 0C10.5913 0 12.1174 0.505713 13.2426 1.40589C14.3679 2.30606 15 3.52696 15 4.8V5.6ZM13 5.6V4.8C13 3.95131 12.5786 3.13737 11.8284 2.53726C11.0783 1.93714 10.0609 1.6 9 1.6C7.93913 1.6 6.92172 1.93714 6.17157 2.53726C5.42143 3.13737 5 3.95131 5 4.8V5.6H13ZM8 10.4V12H10V10.4H8ZM4 10.4V12H6V10.4H4ZM12 10.4V12H14V10.4H12Z" fill="#0B3B60"/>
</g>
<defs>
<clipPath id="clip0_2_95">
<rect width="18" height="16.8" fill="white"/>
</clipPath>
</defs>
</svg>
